<svg width="16" height="16" viewBox="0 0 16 16" fill="none" xmlns="http://www.w3.org/2000/svg">
<path fill-rule="evenodd" clip-rule="evenodd" d="M1.99999 2.66663H14C14.7364 2.66663 15.3333 3.26358 15.3333 3.99996V5.49996H0.666656V3.99996C0.666656 3.26358 1.26361 2.66663 1.99999 2.66663ZM0.666656 6.49996V12C0.666656 12.7363 1.26361 13.3333 1.99999 13.3333H14C14.7364 13.3333 15.3333 12.7363 15.3333 12V6.49996H0.666656ZM8.66666 9.49996C8.39051 9.49996 8.16666 9.72382 8.16666 9.99996C8.16666 10.2761 8.39051 10.5 8.66666 10.5H12.6667C12.9428 10.5 13.1667 10.2761 13.1667 9.99996C13.1667 9.72382 12.9428 9.49996 12.6667 9.49996H8.66666Z" fill="#484855"/>
</svg>
