<svg width="16" height="16" viewBox="0 0 16 16" fill="none" xmlns="http://www.w3.org/2000/svg">
<path d="M4.83334 7.99998C4.83334 8.27612 5.0572 8.49998 5.33334 8.49998C5.60948 8.49998 5.83334 8.27612 5.83334 7.99998H4.83334ZM10.1667 7.99998C10.1667 8.27612 10.3905 8.49998 10.6667 8.49998C10.9428 8.49998 11.1667 8.27612 11.1667 7.99998H10.1667ZM4.66667 11.5C4.39053 11.5 4.16667 11.7238 4.16667 12C4.16667 12.2761 4.39053 12.5 4.66667 12.5V11.5ZM11.3333 12.5C11.6095 12.5 11.8333 12.2761 11.8333 12C11.8333 11.7238 11.6095 11.5 11.3333 11.5V12.5ZM13.4163 5.91129L13.9152 5.87803L13.4163 5.91129ZM13.9052 13.2446L14.4041 13.2114L13.9052 13.2446ZM2.09481 13.2446L1.59592 13.2114L2.09481 13.2446ZM2.5837 5.91129L3.08259 5.94455L2.5837 5.91129ZM5.83334 7.99998V3.99998H4.83334V7.99998H5.83334ZM10.1667 3.99998V7.99998H11.1667V3.99998H10.1667ZM8.00001 1.83331C8.72524 1.83331 9.25482 2.07132 9.60372 2.43262C9.9553 2.7967 10.1667 3.33101 10.1667 3.99998H11.1667C11.1667 3.11868 10.8848 2.31965 10.3231 1.73797C9.75867 1.15351 8.95492 0.833313 8.00001 0.833313V1.83331ZM8.00001 0.833313C7.0451 0.833313 6.24135 1.15351 5.67695 1.73797C5.11523 2.31965 4.83334 3.11868 4.83334 3.99998H5.83334C5.83334 3.33101 6.04471 2.7967 6.39629 2.43262C6.74519 2.07132 7.27478 1.83331 8.00001 1.83331V0.833313ZM4.66667 12.5H11.3333V11.5H4.66667V12.5ZM3.91408 5.16665H12.0859V4.16665H3.91408V5.16665ZM12.9174 5.94455L13.4063 13.2779L14.4041 13.2114L13.9152 5.87803L12.9174 5.94455ZM12.5748 14.1666H3.42519V15.1666H12.5748V14.1666ZM2.5937 13.2779L3.08259 5.94455L2.08481 5.87803L1.59592 13.2114L2.5937 13.2779ZM3.42519 14.1666C2.94314 14.1666 2.56164 13.7589 2.5937 13.2779L1.59592 13.2114C1.52537 14.2695 2.36467 15.1666 3.42519 15.1666V14.1666ZM13.4063 13.2779C13.4384 13.7589 13.0569 14.1666 12.5748 14.1666V15.1666C13.6353 15.1666 14.4746 14.2695 14.4041 13.2114L13.4063 13.2779ZM12.0859 5.16665C12.5247 5.16665 12.8882 5.5068 12.9174 5.94455L13.9152 5.87803C13.851 4.91498 13.0511 4.16665 12.0859 4.16665V5.16665ZM3.91408 4.16665C2.9489 4.16665 2.14901 4.91498 2.08481 5.87803L3.08259 5.94455C3.11177 5.5068 3.47536 5.16665 3.91408 5.16665V4.16665Z" fill="#76777C"/>
</svg>
