<svg width="16" height="16" viewBox="0 0 16 16" fill="none" xmlns="http://www.w3.org/2000/svg">
<path d="M6.7085 3.8335C6.98464 3.8335 7.2085 3.60964 7.2085 3.3335C7.2085 3.05735 6.98464 2.8335 6.7085 2.8335L6.7085 3.8335ZM6.7085 13.396C6.98464 13.396 7.2085 13.1721 7.2085 12.896C7.2085 12.6199 6.98464 12.396 6.7085 12.396L6.7085 13.396ZM6.146 7.61475C5.86985 7.61475 5.646 7.8386 5.646 8.11475C5.646 8.39089 5.86985 8.61475 6.146 8.61475L6.146 7.61475ZM12.3335 8.11475L12.687 8.4683C12.8823 8.27304 12.8823 7.95646 12.687 7.76119L12.3335 8.11475ZM9.87455 4.94869C9.67929 4.75343 9.3627 4.75343 9.16744 4.94869C8.97218 5.14395 8.97218 5.46054 9.16744 5.6558L9.87455 4.94869ZM9.16744 10.5737C8.97218 10.769 8.97218 11.0855 9.16744 11.2808C9.3627 11.4761 9.67929 11.4761 9.87455 11.2808L9.16744 10.5737ZM6.7085 2.8335L5.021 2.8335L5.021 3.8335L6.7085 3.8335L6.7085 2.8335ZM2.8335 5.021L2.8335 11.2085L3.8335 11.2085L3.8335 5.021L2.8335 5.021ZM5.021 13.396L6.7085 13.396L6.7085 12.396L5.021 12.396L5.021 13.396ZM6.146 8.61475L12.3335 8.61475L12.3335 7.61475L6.146 7.61475L6.146 8.61475ZM12.687 7.76119L9.87455 4.94869L9.16744 5.6558L11.9799 8.4683L12.687 7.76119ZM11.9799 7.76119L9.16744 10.5737L9.87455 11.2808L12.687 8.4683L11.9799 7.76119ZM2.8335 11.2085C2.8335 12.4166 3.81287 13.396 5.021 13.396L5.021 12.396C4.36516 12.396 3.8335 11.8643 3.8335 11.2085L2.8335 11.2085ZM5.021 2.8335C3.81287 2.8335 2.8335 3.81287 2.8335 5.021L3.8335 5.021C3.8335 4.36516 4.36516 3.8335 5.021 3.8335L5.021 2.8335Z" fill="#76777C"/>
</svg>
