<svg width="16" height="16" viewBox="0 0 16 16" fill="none" xmlns="http://www.w3.org/2000/svg">
<path d="M10.2925 8.85714C10.4621 8.95192 13 9.61866 13 11.2108C13 12.2574 12.5126 13.209 11.5375 13.5084C10.6951 13.7672 9.50597 14 8 14C6.49398 14 5.3049 13.7672 4.46248 13.5084C3.48744 13.209 3 12.2574 3 11.2108C3 9.61544 5.53959 8.9508 5.70748 8.85714M8 10.5714C9.87579 10.5714 11.3333 7.61848 11.3333 4.59482C11.3333 3.18445 9.86573 2 8 2C6.13427 2 4.66667 3.18445 4.66667 4.59482C4.66667 7.61848 6.12421 10.5714 8 10.5714Z" stroke="#76777C"/>
</svg>
