<svg width="16" height="16" viewBox="0 0 16 16" fill="none" xmlns="http://www.w3.org/2000/svg">
<path d="M12.2903 8.085C12.3134 7.8975 12.3289 7.7025 12.3289 7.5C12.3289 7.2975 12.3134 7.1025 12.2826 6.915L13.5863 5.925C13.7021 5.835 13.7329 5.67 13.6635 5.5425L12.4292 3.465C12.352 3.33 12.19 3.285 12.0512 3.33L10.516 3.93C10.192 3.69 9.85253 3.495 9.47452 3.345L9.24309 1.755C9.21995 1.605 9.0888 1.5 8.93451 1.5H6.46588C6.31159 1.5 6.18816 1.605 6.16502 1.755L5.93358 3.345C5.55557 3.495 5.20842 3.6975 4.89213 3.93L3.35695 3.33C3.21809 3.2775 3.05609 3.33 2.97894 3.465L1.74463 5.5425C1.66748 5.6775 1.69834 5.835 1.82177 5.925L3.12552 6.915C3.09466 7.1025 3.07152 7.305 3.07152 7.5C3.07152 7.695 3.08694 7.8975 3.1178 8.085L1.81406 9.075C1.69834 9.165 1.66748 9.33 1.73691 9.4575L2.97123 11.535C3.04837 11.67 3.21038 11.715 3.34924 11.67L4.88442 11.07C5.20842 11.31 5.54786 11.505 5.92587 11.655L6.1573 13.245C6.18816 13.395 6.31159 13.5 6.46588 13.5H8.93451C9.0888 13.5 9.21995 13.395 9.23537 13.245L9.46681 11.655C9.84482 11.505 10.192 11.3025 10.5083 11.07L12.0434 11.67C12.1823 11.7225 12.3443 11.67 12.4215 11.535L13.6558 9.4575C13.7329 9.3225 13.7021 9.165 13.5786 9.075L12.2903 8.085ZM7.7002 9.75C6.42731 9.75 5.38586 8.7375 5.38586 7.5C5.38586 6.2625 6.42731 5.25 7.7002 5.25C8.97308 5.25 10.0145 6.2625 10.0145 7.5C10.0145 8.7375 8.97308 9.75 7.7002 9.75Z" stroke="#76777C" stroke-linejoin="round"/>
</svg>
